<svg xmlns="http://www.w3.org/2000/svg" width="920" height="660" viewBox="0 0 920 660" role="img">
  <rect width="920" height="660" fill="#f8fafc"/>
  <text x="460" y="54" text-anchor="middle" font-family="Arial, sans-serif" font-size="30" font-weight="700" fill="#0f172a">Baseline vs Calibrated Isolation Forest</text>
  <text x="460" y="86" text-anchor="middle" font-family="Arial, sans-serif" font-size="16" fill="#475569">Same held-out test split; old model files preserved</text>
  <g font-family="Arial, sans-serif" font-size="14" fill="#475569">
    <rect x="210" y="104" width="18" height="18" rx="4" fill="#94a3b8"/><text x="236" y="118">Baseline</text>
    <rect x="330" y="104" width="18" height="18" rx="4" fill="#0f5ea8"/><text x="356" y="118">Calibrated</text>
  </g>

  <text x="72" y="154" font-family="Arial, sans-serif" font-size="17" font-weight="700" fill="#334155">Accuracy</text>
  <rect x="210" y="135" width="420" height="22" rx="5" fill="#e2e8f0"/>
  <rect x="210" y="135" width="398.32" height="22" rx="5" fill="#94a3b8"/>
  <text x="648" y="152" font-family="Arial, sans-serif" font-size="15" fill="#475569">old 0.9484</text>
  <rect x="210" y="165" width="420" height="22" rx="5" fill="#e0f2fe"/>
  <rect x="210" y="165" width="416.47" height="22" rx="5" fill="#0f5ea8"/>
  <text x="648" y="182" font-family="Arial, sans-serif" font-size="15" fill="#0f172a">new 0.9916 (+0.0432)</text>
  <text x="72" y="236" font-family="Arial, sans-serif" font-size="17" font-weight="700" fill="#334155">Precision</text>
  <rect x="210" y="217" width="420" height="22" rx="5" fill="#e2e8f0"/>
  <rect x="210" y="217" width="417.07" height="22" rx="5" fill="#94a3b8"/>
  <text x="648" y="234" font-family="Arial, sans-serif" font-size="15" fill="#475569">old 0.9930</text>
  <rect x="210" y="247" width="420" height="22" rx="5" fill="#e0f2fe"/>
  <rect x="210" y="247" width="416.79" height="22" rx="5" fill="#0f5ea8"/>
  <text x="648" y="264" font-family="Arial, sans-serif" font-size="15" fill="#0f172a">new 0.9924 (-0.0007)</text>
  <text x="72" y="318" font-family="Arial, sans-serif" font-size="17" font-weight="700" fill="#334155">Recall</text>
  <rect x="210" y="299" width="420" height="22" rx="5" fill="#e2e8f0"/>
  <rect x="210" y="299" width="386.80" height="22" rx="5" fill="#94a3b8"/>
  <text x="648" y="316" font-family="Arial, sans-serif" font-size="15" fill="#475569">old 0.9209</text>
  <rect x="210" y="329" width="420" height="22" rx="5" fill="#e0f2fe"/>
  <rect x="210" y="329" width="417.36" height="22" rx="5" fill="#0f5ea8"/>
  <text x="648" y="346" font-family="Arial, sans-serif" font-size="15" fill="#0f172a">new 0.9937 (+0.0728)</text>
  <text x="72" y="400" font-family="Arial, sans-serif" font-size="17" font-weight="700" fill="#334155">F1</text>
  <rect x="210" y="381" width="420" height="22" rx="5" fill="#e2e8f0"/>
  <rect x="210" y="381" width="401.37" height="22" rx="5" fill="#94a3b8"/>
  <text x="648" y="398" font-family="Arial, sans-serif" font-size="15" fill="#475569">old 0.9556</text>
  <rect x="210" y="411" width="420" height="22" rx="5" fill="#e0f2fe"/>
  <rect x="210" y="411" width="417.07" height="22" rx="5" fill="#0f5ea8"/>
  <text x="648" y="428" font-family="Arial, sans-serif" font-size="15" fill="#0f172a">new 0.9930 (+0.0374)</text>
  <text x="72" y="482" font-family="Arial, sans-serif" font-size="17" font-weight="700" fill="#334155">ROC-AUC</text>
  <rect x="210" y="463" width="420" height="22" rx="5" fill="#e2e8f0"/>
  <rect x="210" y="463" width="418.12" height="22" rx="5" fill="#94a3b8"/>
  <text x="648" y="480" font-family="Arial, sans-serif" font-size="15" fill="#475569">old 0.9955</text>
  <rect x="210" y="493" width="420" height="22" rx="5" fill="#e0f2fe"/>
  <rect x="210" y="493" width="419.41" height="22" rx="5" fill="#0f5ea8"/>
  <text x="648" y="510" font-family="Arial, sans-serif" font-size="15" fill="#0f172a">new 0.9986 (+0.0031)</text>
  <rect x="72" y="560" width="776" height="62" rx="10" fill="#ffffff" stroke="#cbd5e1"/>
  <text x="96" y="586" font-family="Arial, sans-serif" font-size="16" font-weight="700" fill="#0f172a">Confusion matrix movement</text>
  <text x="96" y="611" font-family="Arial, sans-serif" font-size="15" fill="#334155">False negatives: 465 -> 37 (-428); false positives: 38 -> 45 (+7)</text>
</svg>
